#Comment line ignore any data following # character 
#Hierarchical Translation and Rotation (.htr) file 
[Header]	
#Header keywords are followed by a single value 
FileType HTR		#Single word string
DataType HTRS		#Translation followed by rotation and scale data
FileVersion 1		#integer
NumSegments 64		#integer
NumFrames 3		#integer
DataFrameRate 30		#integer, data frame rate in this file
EulerRotationOrder ZYX
CalibrationUnits mm
RotationUnits Degrees
GlobalAxisofGravity Y
BoneLengthAxis Y
ScaleFactor 1.00
[SegmentNames&Hierarchy]
#CHILD	PARENT
Pinger_Root GLOBAL
Pelvis Pinger_Root
L_Hip Pelvis
R_Hip Pelvis
Rear_Leg01 Pelvis
Spine1 Pelvis
L_Leg01 L_Hip
L_Leg02 L_Leg01
L_Leg03 L_Leg02
L_Foot L_Leg03
L_Toe1_01 L_Foot
L_Toe2_01 L_Foot
L_Toe3_01 L_Foot
planeAlignerLeft L_Foot
L_Toe1_02 L_Toe1_01
L_Toe1_03 L_Toe1_02
L_Toe2_02 L_Toe2_01
L_Toe2_03 L_Toe2_02
L_Toe3_02 L_Toe3_01
L_Toe3_03 L_Toe3_02
planeLockWeightLeft planeAlignerLeft
R_Leg01 R_Hip
R_Leg02 R_Leg01
R_Leg03 R_Leg02
R_Foot R_Leg03
planeAlignerRight R_Foot
R_Toe1_01 R_Foot
R_Toe2_01 R_Foot
R_Toe3_01 R_Foot
planeLockWeightRight planeAlignerRight
R_Toe1_02 R_Toe1_01
R_Toe1_03 R_Toe1_02
R_Toe2_02 R_Toe2_01
R_Toe2_03 R_Toe2_02
R_Toe3_02 R_Toe3_01
R_Toe3_03 R_Toe3_02
Rear_Leg02 Rear_Leg01
Rear_Leg03 Rear_Leg02
Rear_Leg04 Rear_Leg03
Rear_Foot Rear_Leg04
planeAlignerCenter Rear_Foot
Rear_Toe1_01 Rear_Foot
Rear_Toe2_01 Rear_Foot
Rear_Toe3_01 Rear_Foot
planeLockWeightCenter planeAlignerCenter
Rear_Toe1_02 Rear_Toe1_01
Rear_Toe1_03 Rear_Toe1_02
Rear_Toe2_02 Rear_Toe2_01
Rear_Toe2_03 Rear_Toe2_02
Rear_Toe3_02 Rear_Toe3_01
Rear_Toe3_03 Rear_Toe3_02
Back_Bone Spine1
Head Spine1
Motor_Bone Back_Bone
Ping_Mechanism Back_Bone
BN_LookIK Head
bottomMouth Head
L_Mouth01 Head
L_mouthFront Head
mouthGun Head
R_Mouth01 Head
R_mouthFront Head
TopMouth Head
weapon_bone Head
[BasePosition]
#SegmentName Tx, Ty, Tz, Rx, Ry, Rz, BoneLength
Pinger_Root 0.000000 0.000000 0.000000 -90.000000 0.000000 0.000000 10.000000 
Pelvis 0.000000 0.000000 0.000000 0.000000 0.000000 0.000000 10.000000 
L_Hip 0.000000 0.000000 0.000000 0.000000 0.000000 0.000000 10.000000 
R_Hip 0.000000 0.000000 0.000000 0.000000 0.000000 0.000000 10.000000 
Rear_Leg01 0.000000 0.000000 0.000000 0.000000 0.000000 0.000000 10.000000 
Spine1 0.000000 0.000000 0.000000 0.000000 0.000000 0.000000 10.000000 
L_Leg01 0.000000 0.000000 0.000000 0.000000 0.000000 0.000000 10.000000 
L_Leg02 0.000000 0.000000 0.000000 0.000000 0.000000 0.000000 10.000000 
L_Leg03 0.000000 0.000000 0.000000 0.000000 0.000000 0.000000 10.000000 
L_Foot 0.000000 0.000000 0.000000 0.000000 0.000000 0.000000 10.000000 
L_Toe1_01 0.000000 0.000000 0.000000 0.000000 0.000000 0.000000 10.000000 
L_Toe2_01 0.000000 0.000000 0.000000 0.000000 0.000000 0.000000 10.000000 
L_Toe3_01 0.000000 0.000000 0.000000 0.000000 0.000000 0.000000 10.000000 
planeAlignerLeft 0.000000 0.000000 0.000000 0.000000 0.000000 0.000000 10.000000 
L_Toe1_02 0.000000 0.000000 0.000000 0.000000 0.000000 0.000000 10.000000 
L_Toe1_03 0.000000 0.000000 0.000000 0.000000 0.000000 0.000000 10.000000 
L_Toe2_02 0.000000 0.000000 0.000000 0.000000 0.000000 0.000000 10.000000 
L_Toe2_03 0.000000 0.000000 0.000000 0.000000 0.000000 0.000000 10.000000 
L_Toe3_02 0.000000 0.000000 0.000000 0.000000 0.000000 0.000000 10.000000 
L_Toe3_03 0.000000 0.000000 0.000000 0.000000 0.000000 0.000000 10.000000 
planeLockWeightLeft 0.000000 0.000000 0.000000 0.000000 0.000000 0.000000 10.000000 
R_Leg01 0.000000 0.000000 0.000000 0.000000 0.000000 0.000000 10.000000 
R_Leg02 0.000000 0.000000 0.000000 0.000000 0.000000 0.000000 10.000000 
R_Leg03 0.000000 0.000000 0.000000 0.000000 0.000000 0.000000 10.000000 
R_Foot 0.000000 0.000000 0.000000 0.000000 0.000000 0.000000 10.000000 
planeAlignerRight 0.000000 0.000000 0.000000 0.000000 0.000000 0.000000 10.000000 
R_Toe1_01 0.000000 0.000000 0.000000 0.000000 0.000000 0.000000 10.000000 
R_Toe2_01 0.000000 0.000000 0.000000 0.000000 0.000000 0.000000 10.000000 
R_Toe3_01 0.000000 0.000000 0.000000 0.000000 0.000000 0.000000 10.000000 
planeLockWeightRight 0.000000 0.000000 0.000000 0.000000 0.000000 0.000000 10.000000 
R_Toe1_02 0.000000 0.000000 0.000000 0.000000 0.000000 0.000000 10.000000 
R_Toe1_03 0.000000 0.000000 0.000000 0.000000 0.000000 0.000000 10.000000 
R_Toe2_02 0.000000 0.000000 0.000000 0.000000 0.000000 0.000000 10.000000 
R_Toe2_03 0.000000 0.000000 0.000000 0.000000 0.000000 0.000000 10.000000 
R_Toe3_02 0.000000 0.000000 0.000000 0.000000 0.000000 0.000000 10.000000 
R_Toe3_03 0.000000 0.000000 0.000000 0.000000 0.000000 0.000000 10.000000 
Rear_Leg02 0.000000 0.000000 0.000000 0.000000 0.000000 0.000000 10.000000 
Rear_Leg03 0.000000 0.000000 0.000000 0.000000 0.000000 0.000000 10.000000 
Rear_Leg04 0.000000 0.000000 0.000000 0.000000 0.000000 0.000000 10.000000 
Rear_Foot 0.000000 0.000000 0.000000 0.000000 0.000000 0.000000 10.000000 
planeAlignerCenter 0.000000 0.000000 0.000000 0.000000 0.000000 0.000000 10.000000 
Rear_Toe1_01 0.000000 0.000000 0.000000 0.000000 0.000000 0.000000 10.000000 
Rear_Toe2_01 0.000000 0.000000 0.000000 0.000000 0.000000 0.000000 10.000000 
Rear_Toe3_01 0.000000 0.000000 0.000000 0.000000 0.000000 0.000000 10.000000 
planeLockWeightCenter 0.000000 0.000000 0.000000 0.000000 0.000000 0.000000 10.000000 
Rear_Toe1_02 0.000000 0.000000 0.000000 0.000000 0.000000 0.000000 10.000000 
Rear_Toe1_03 0.000000 0.000000 0.000000 0.000000 0.000000 0.000000 10.000000 
Rear_Toe2_02 0.000000 0.000000 0.000000 0.000000 0.000000 0.000000 10.000000 
Rear_Toe2_03 0.000000 0.000000 0.000000 0.000000 0.000000 0.000000 10.000000 
Rear_Toe3_02 0.000000 0.000000 0.000000 0.000000 0.000000 0.000000 10.000000 
Rear_Toe3_03 0.000000 0.000000 0.000000 0.000000 0.000000 0.000000 10.000000 
Back_Bone 0.000000 0.000000 0.000000 0.000000 0.000000 0.000000 10.000000 
Head 0.000000 0.000000 0.000000 0.000000 0.000000 0.000000 10.000000 
Motor_Bone 0.000000 0.000000 0.000000 0.000000 0.000000 0.000000 10.000000 
Ping_Mechanism 0.000000 0.000000 0.000000 0.000000 0.000000 0.000000 10.000000 
BN_LookIK 0.000000 0.000000 0.000000 0.000000 0.000000 0.000000 10.000000 
bottomMouth 0.000000 0.000000 0.000000 0.000000 0.000000 0.000000 10.000000 
L_Mouth01 0.000000 0.000000 0.000000 0.000000 0.000000 0.000000 10.000000 
L_mouthFront 0.000000 0.000000 0.000000 0.000000 0.000000 0.000000 10.000000 
mouthGun 0.000000 0.000000 0.000000 0.000000 0.000000 0.000000 10.000000 
R_Mouth01 0.000000 0.000000 0.000000 0.000000 0.000000 0.000000 10.000000 
R_mouthFront 0.000000 0.000000 0.000000 0.000000 0.000000 0.000000 10.000000 
TopMouth 0.000000 0.000000 0.000000 0.000000 0.000000 0.000000 10.000000 
weapon_bone 0.000000 0.000000 0.000000 0.000000 0.000000 0.000000 10.000000 
#Beginning of Data. Separated by tabs
#Fr	Tx	Ty	Tz	Rx	Ry	Rz	SF
[Pinger_Root]
40 0.000000 0.000000 0.000000 -0.000059 0.000047 76.807533 0.000000
41 0.000000 0.000000 0.000000 -0.000058 0.000048 79.411819 0.000000
42 0.000000 0.000000 0.000000 -0.000030 0.000051 82.057426 0.000000
[Pelvis]
40 188.316345 183.809052 4335.366211 -81.968094 -82.942223 96.120956 4343.345215
41 250.407761 193.308838 4351.653809 -85.867638 -83.228851 96.823448 4363.136719
42 290.202057 211.367386 4359.206543 -89.964233 -83.508583 97.726448 4373.965820
[L_Hip]
40 5.766392 125.831482 872.656799 160.158691 -45.484894 122.312202 881.701050
41 5.766392 125.831482 872.656799 160.158691 -45.484905 122.312202 881.701050
42 5.766392 125.831482 872.656799 160.158691 -45.484905 122.312202 881.701050
[R_Hip]
40 5.765438 125.836372 -872.654907 38.087841 49.812687 125.703735 881.699829
41 5.765438 125.836372 -872.654907 38.087841 49.812687 125.703735 881.699829
42 5.765438 125.836372 -872.654907 38.087841 49.812687 125.703735 881.699829
[Rear_Leg01]
40 -192.298416 -925.602966 -0.001907 176.671036 -2.952693 -150.527344 945.367432
41 -192.298416 -925.602966 -0.001907 175.620865 -3.796904 -150.385117 945.367432
42 -192.298416 -925.602966 -0.001907 174.773499 -4.106506 -150.027969 945.367432
[Spine1]
40 290.604584 5.007505 0.000477 -5.964718 1.834991 16.625967 290.647736
41 290.604584 5.007505 0.000477 -4.644724 2.005293 16.718107 290.647736
42 290.604584 5.007505 0.000477 -3.383106 2.068143 17.223572 290.647736
[L_Leg01]
40 761.932007 -0.002384 -0.069261 10.567136 -33.091640 11.954423 761.932068
41 761.932007 -0.002384 -0.069261 12.671654 -31.646223 10.576906 761.932068
42 761.932007 -0.002384 -0.069261 14.752794 -30.121210 8.651161 761.932068
[L_Leg02]
40 1441.140503 -0.000954 -0.000715 -0.568776 0.267994 -119.763786 1441.140503
41 1441.140503 -0.000954 -0.000715 -0.581856 0.265936 -119.040474 1441.140503
42 1441.140503 -0.000954 -0.000715 -0.534070 0.240351 -118.609528 1441.140503
[L_Leg03]
40 1686.963989 -0.000715 -0.000954 0.036521 -0.010387 100.509407 1686.963989
41 1686.963989 -0.000715 -0.000954 0.033069 -0.009188 101.489594 1686.963989
42 1686.963989 -0.000715 -0.000954 0.029639 -0.007930 102.469864 1686.963989
[L_Foot]
40 3041.570068 -30.715107 11.297464 -18.901466 12.645200 45.385555 3041.746094
41 3041.570068 -30.715107 11.297464 -17.063576 12.625377 44.773384 3041.746094
42 3041.570068 -30.715107 11.297464 -16.474983 12.645928 44.776909 3041.746094
[L_Toe1_01]
40 -188.216690 -224.732346 -21.137953 71.076363 0.319332 -172.402542 293.899567
41 -188.216690 -224.732346 -21.137953 73.899834 -0.326475 -171.606354 293.899567
42 -188.216690 -224.732346 -21.137953 75.196686 -0.756661 -171.583405 293.899567
[L_Toe2_01]
40 200.746536 -219.926590 148.838394 -77.540108 -2.418720 -58.020313 332.896027
41 200.746536 -219.926590 148.838394 -78.921379 -5.120415 -58.235298 332.896027
42 200.746536 -219.926590 148.838394 -79.608925 -6.626043 -57.971622 332.896027
[L_Toe3_01]
40 188.832520 -219.859131 -191.078659 -88.566261 40.747524 -57.718849 347.140900
41 188.832520 -219.859131 -191.078659 -90.968109 37.371632 -60.491230 347.140900
42 188.832520 -219.859131 -191.078659 -91.743553 35.771431 -61.136608 347.140900
[planeAlignerLeft]
40 32.724300 -573.613647 -132.314133 -10.742046 -80.839722 -89.993996 589.585022
41 32.799984 -591.774902 -108.028824 -10.780985 -83.701782 -89.942284 602.447998
42 32.792812 -594.053467 -93.568947 -10.783308 -85.009735 -89.941658 602.270691
[L_Toe1_02]
40 413.761139 0.000477 0.000000 0.001384 -25.974588 0.001384 413.761139
41 413.761139 0.000477 0.000000 0.001384 -25.976845 0.001384 413.761139
42 413.761139 0.000477 0.000000 0.001384 -25.979094 0.001384 413.761139
[L_Toe1_03]
40 464.317322 0.000358 -0.000089 0.003956 55.484066 0.003956 464.317322
41 464.317322 0.000358 -0.000089 0.003901 54.986725 0.003901 464.317322
42 464.317322 0.000358 -0.000089 0.003898 54.950787 0.003898 464.317322
[L_Toe2_02]
40 342.235809 -0.000477 0.000238 0.001188 -72.032013 0.001188 342.235809
41 342.235809 -0.000477 0.000238 0.001189 -71.698761 0.001189 342.235809
42 342.235809 -0.000477 0.000238 0.001189 -71.749947 0.001189 342.235809
[L_Toe2_03]
40 420.210846 -0.000715 0.000000 0.024212 84.443245 0.024212 420.210846
41 420.210846 -0.000715 0.000000 0.021063 83.611748 0.021063 420.210846
42 420.210846 -0.000715 0.000000 0.021866 83.846420 0.021866 420.210846
[L_Toe3_02]
40 329.270111 0.000954 0.000000 0.001177 -81.325523 0.001177 329.270111
41 329.270111 0.000954 0.000000 0.001177 -81.149628 0.001177 329.270111
42 329.270111 0.000954 0.000000 0.001177 -80.973618 0.001177 329.270111
[L_Toe3_03]
40 439.137451 -0.001907 0.000954 -179.997208 75.519310 -179.993683 439.137451
41 439.137451 -0.001907 0.000954 -179.996780 76.757927 -179.993256 439.137451
42 439.137451 -0.001907 0.000954 -179.996780 76.753365 -179.993256 439.137451
[planeLockWeightLeft]
40 1000.000122 0.098102 0.076115 -0.011826 -0.004376 0.005620 1000.000122
41 1000.000122 0.098093 0.076117 -0.011826 -0.004376 0.005620 1000.000122
42 1000.000122 0.098085 0.076118 -0.011826 -0.004376 0.005620 1000.000122
[R_Leg01]
40 761.455627 -0.001907 -0.000358 131.243118 -20.354748 20.737446 761.455688
41 761.455627 -0.001907 -0.000358 126.527809 -19.667976 25.680779 761.455688
42 761.455627 -0.001907 -0.000358 122.524879 -19.092550 29.113569 761.455688
[R_Leg02]
40 1441.140625 0.000000 -0.000238 -1.095996 -0.142673 -129.063354 1441.140625
41 1441.140625 0.000000 -0.000238 -1.111082 -0.167325 -125.875076 1441.140625
42 1441.140625 0.000000 -0.000238 -1.110190 -0.171451 -123.782410 1441.140625
[R_Leg03]
40 1686.963989 0.000954 0.001431 0.068146 -0.034803 128.346741 1686.963989
41 1686.963989 0.000954 0.001431 0.074174 -0.038222 130.080292 1686.963989
42 1686.963989 0.000954 0.001431 0.075040 -0.040792 130.581177 1686.963989
[R_Foot]
40 3041.560059 -30.531288 -11.204481 -2.237572 -15.396985 51.038025 3041.734131
41 3041.560059 -30.531288 -11.204481 -2.381235 -23.982407 49.803299 3041.734131
42 3041.560059 -30.531288 -11.204481 -2.254713 -28.892052 49.179089 3041.734131
[planeAlignerRight]
40 -70.071304 -556.820129 -329.338837 -4.569566 -73.221169 -94.880409 650.709412
41 -98.867882 -574.004578 -323.234467 -21.056139 -72.920181 -79.127930 666.135620
42 -108.174820 -573.916443 -320.253265 -27.227512 -72.445282 -73.246315 666.066040
[R_Toe1_01]
40 -188.383347 -224.864899 21.052242 77.809441 10.924346 -173.213562 294.101532
41 -188.383347 -224.864899 21.052242 77.325829 5.401888 -172.497757 294.101532
42 -188.383347 -224.864899 21.052242 77.087624 3.206300 -172.620651 294.101532
[R_Toe2_01]
40 200.637817 -220.002121 -148.787384 -80.893707 25.761156 -52.360703 332.857574
41 200.637817 -220.002121 -148.787384 -86.149994 29.247246 -55.942581 332.857574
42 200.637817 -220.002121 -148.787384 -88.203239 30.673008 -57.107590 332.857574
[R_Toe3_01]
40 188.606735 -220.092957 191.126343 -62.785133 -13.405132 -75.922279 347.192566
41 188.606735 -220.092957 191.126343 -67.943680 -10.761765 -75.242561 347.192566
42 188.606735 -220.092957 191.126343 -69.960617 -9.877183 -74.667496 347.192566
[planeLockWeightRight]
40 999.999207 0.000000 0.075905 -0.011823 -0.004379 -0.000027 999.999207
41 999.999207 0.000000 0.075896 -0.011823 -0.004379 -0.000027 999.999207
42 999.999268 0.000000 0.075887 -0.011823 -0.004379 -0.000027 999.999268
[R_Toe1_02]
40 413.762085 0.000477 -0.000119 0.001393 -24.841198 0.001393 413.762085
41 413.762085 0.000477 -0.000119 0.001393 -24.830511 0.001393 413.762085
42 413.762085 0.000477 -0.000119 0.001393 -24.819824 0.001393 413.762085
[R_Toe1_03]
40 464.317810 0.000000 0.001088 0.006421 68.938187 0.006421 464.317810
41 464.317810 0.000000 0.001088 0.006455 69.047424 0.006455 464.317810
42 464.317810 0.000000 0.001088 0.006488 69.156593 0.006488 464.317810
[R_Toe2_02]
40 342.234741 -0.000954 0.000238 0.001196 -67.691872 0.001196 342.234741
41 342.234741 -0.000954 0.000238 0.001197 -67.155922 0.001197 342.234741
42 342.234741 -0.000954 0.000238 0.001197 -67.160042 0.001197 342.234741
[R_Toe2_03]
40 420.210846 0.000715 -0.000268 0.008904 74.852486 0.008904 420.210846
41 420.210846 0.000715 -0.000268 0.008173 73.488586 0.008173 420.210846
42 420.210846 0.000715 -0.000268 0.008177 73.496292 0.008177 420.210846
[R_Toe3_02]
40 329.270355 -0.000477 -0.000954 0.001183 -75.961960 0.001183 329.270355
41 329.270355 -0.000477 -0.000954 0.001184 -74.867004 0.001184 329.270355
42 329.270355 -0.000477 -0.000954 0.001184 -74.828300 0.001184 329.270355
[R_Toe3_03]
40 439.137939 0.000238 0.001431 -0.026157 87.301292 -0.022659 439.137939
41 439.137939 0.000238 0.001431 -0.013053 84.170288 -0.009552 439.137939
42 439.137939 0.000238 0.001431 -0.012662 83.961098 -0.009160 439.137939
[Rear_Leg02]
40 1162.777710 -0.029802 0.005960 1.983197 -2.265981 -127.157555 1162.777710
41 1162.777710 -0.029802 0.005960 1.950316 -2.296482 -126.342407 1162.777710
42 1162.777710 -0.029802 0.005960 1.913355 -2.326625 -126.380959 1162.777710
[Rear_Leg03]
40 607.192505 -0.013351 -0.073195 0.010216 -0.005638 74.146400 607.192505
41 607.192505 -0.013351 -0.073195 0.010229 -0.005615 73.881798 607.192505
42 607.192505 -0.013351 -0.073195 0.010242 -0.005591 73.617188 607.192505
[Rear_Leg04]
40 995.874512 -0.020504 -0.011921 -0.045372 -0.017606 81.000748 995.874573
41 995.874512 -0.020504 -0.011921 -0.045271 -0.017866 80.345352 995.874573
42 995.874512 -0.020504 -0.011921 -0.045168 -0.018124 79.689980 995.874573
[Rear_Foot]
40 3096.176270 -0.067472 -0.041425 -156.004089 82.948235 19.827745 3096.176270
41 3096.176270 -0.067472 -0.041425 -158.343506 82.217850 17.384960 3096.176270
42 3096.176270 -0.067472 -0.041425 -159.450897 81.833290 16.743185 3096.176270
[planeAlignerCenter]
40 0.917872 -16.082407 -776.944092 12.240772 -0.001473 179.998184 777.111023
41 0.918024 -16.082355 -776.945740 12.240772 -0.001473 179.998184 777.112671
42 0.918175 -16.082306 -776.947266 12.240772 -0.001473 179.998184 777.114197
[Rear_Toe1_01]
40 0.653352 83.966492 -371.173737 0.293208 41.914120 90.408066 380.553192
41 0.653352 83.966492 -371.173737 0.292912 41.914120 90.408371 380.553192
42 0.653352 83.966492 -371.173737 0.292607 41.914120 90.408661 380.553192
[Rear_Toe2_01]
40 178.200760 -294.826019 -362.060547 -7.196267 34.406261 -66.271294 499.765686
41 178.200760 -294.826019 -362.060547 -7.196267 34.406261 -66.271294 499.765686
42 178.200760 -294.826019 -362.060547 -7.196267 34.406261 -66.271294 499.765686
[Rear_Toe3_01]
40 -153.359680 -308.780914 -362.060852 3.289418 33.518005 -112.540970 499.952881
41 -153.359680 -308.780914 -362.060852 3.289418 33.518005 -112.540970 499.952881
42 -153.359680 -308.780914 -362.060852 3.289418 33.518005 -112.540970 499.952881
[planeLockWeightCenter]
40 1000.000122 0.000305 0.076425 -0.011814 -0.004373 -0.000015 1000.000122
41 1000.000122 0.000305 0.076423 -0.011814 -0.004373 -0.000015 1000.000122
42 1000.000122 0.000305 0.076421 -0.011814 -0.004373 -0.000015 1000.000122
[Rear_Toe1_02]
40 379.707825 0.194073 0.000477 -0.000235 -31.585562 0.006930 379.707855
41 379.707825 0.194073 0.000477 -0.000236 -31.590929 0.006931 379.707855
42 379.707825 0.194073 0.000477 -0.000236 -31.596298 0.006931 379.707855
[Rear_Toe1_03]
40 500.129700 0.165701 0.000119 -0.000105 51.883789 0.007294 500.129761
41 500.129700 0.165701 0.000119 -0.000105 51.884892 0.007294 500.129761
42 500.129700 0.165701 0.000119 -0.000105 51.885983 0.007294 500.129761
[Rear_Toe2_02]
40 340.494507 0.000238 -0.000954 0.001192 -69.854523 0.001192 340.494507
41 340.494507 0.000238 -0.000954 0.001192 -69.854523 0.001192 340.494507
42 340.494507 0.000238 -0.000954 0.001192 -69.854538 0.001192 340.494507
[Rear_Toe2_03]
40 433.103577 0.000000 0.000238 0.006644 69.651062 0.006644 433.103546
41 433.103577 0.000000 0.000238 0.006654 69.682938 0.006654 433.103546
42 433.103577 0.000000 0.000238 0.006664 69.714752 0.006664 433.103546
[Rear_Toe3_02]
40 340.494141 -0.000358 -0.000477 0.008288 -67.274704 -0.009460 340.494171
41 340.494141 -0.000358 -0.000477 0.008288 -67.274704 -0.009460 340.494171
42 340.494141 -0.000358 -0.000477 0.008288 -67.274704 -0.009460 340.494171
[Rear_Toe3_03]
40 433.103577 0.001431 -0.000238 -0.000993 66.135994 -0.004567 433.103546
41 433.103577 0.001431 -0.000238 -0.000991 66.118286 -0.004565 433.103546
42 433.103577 0.001431 -0.000238 -0.000989 66.100594 -0.004563 433.103546
[Back_Bone]
40 1312.175781 -701.934692 0.000954 0.000023 -0.000007 -85.606667 1488.125488
41 1312.175781 -701.934692 0.000954 0.000023 -0.000007 -85.606667 1488.125488
42 1312.175781 -701.934692 0.000954 0.000023 -0.000007 -85.606667 1488.125488
[Head]
40 1406.159424 809.709290 0.001431 0.000625 -1.475623 7.768026 1622.625488
41 1406.159424 809.709290 0.001431 0.000625 -1.475623 7.768026 1622.625488
42 1406.159424 809.709290 0.001431 0.000625 -1.475623 7.768025 1622.625488
[Motor_Bone]
40 1158.364380 -417.834747 0.000477 -0.095385 0.076104 -105.915703 1231.419434
41 1158.364380 -417.834747 0.000477 -0.095385 0.076104 -105.915703 1231.419434
42 1158.364380 -417.834747 0.000477 -0.097097 0.820937 -105.914131 1231.419434
[Ping_Mechanism]
40 1247.931030 -447.624298 1.408151 0.000103 -0.000053 82.120995 1325.783203
41 1246.609009 -447.107117 -0.223993 0.000103 -0.000053 82.120995 1324.363525
42 1245.286865 -446.589935 -1.856143 0.000103 -0.000053 82.120995 1322.945679
[BN_LookIK]
40 193.241119 1380.371704 -0.002861 0.000000 89.965736 -31.038179 1393.832153
41 193.241119 1380.371704 -0.002861 0.000000 89.965736 -31.038179 1393.832153
42 193.241119 1380.371704 -0.002861 0.000000 89.965736 -31.038179 1393.832153
[bottomMouth]
40 -435.092926 615.759399 -0.000954 -0.000022 0.000016 73.527184 753.966492
41 -435.092926 615.759399 -0.000954 -0.000022 0.000016 73.527184 753.966492
42 -435.092926 615.759399 -0.000954 -0.000022 0.000016 73.527184 753.966492
[L_Mouth01]
40 554.440979 7.658243 838.222046 150.204178 23.759130 109.605339 1005.027161
41 554.440979 7.658243 838.222046 150.204178 23.759130 109.605339 1005.027161
42 554.440979 7.658243 838.222046 150.204178 23.759130 109.605339 1005.027161
[L_mouthFront]
40 551.629089 934.514771 339.150421 0.000081 2.804060 79.119301 1136.941284
41 551.629089 934.514771 339.150421 0.000081 2.804060 79.119301 1136.941284
42 551.629089 934.514771 339.150421 0.000081 2.804060 79.119301 1136.941284
[mouthGun]
40 55.332661 1627.420898 0.000000 0.000023 0.000009 -11.038128 1628.361328
41 55.332661 1627.420898 0.000000 0.000023 0.000009 -11.038128 1628.361328
42 55.332661 1627.420898 0.000000 0.000023 0.000009 -11.038128 1628.361328
[R_Mouth01]
40 554.442383 7.659197 -838.223938 29.795891 -23.759109 109.605331 1005.029541
41 554.442383 7.659197 -838.223938 29.795891 -23.759109 109.605331 1005.029541
42 554.442383 7.659197 -838.223938 29.795891 -23.759109 109.605331 1005.029541
[R_mouthFront]
40 551.629089 934.514282 -339.151367 0.000029 -2.803930 79.119133 1136.941162
41 551.629089 934.514282 -339.151367 0.000029 -2.803930 79.119133 1136.941162
42 551.629089 934.514282 -339.151367 0.000029 -2.803930 79.119133 1136.941162
[TopMouth]
40 461.269867 -56.106091 -0.008583 -0.000059 -0.000268 92.025169 464.669525
41 461.269867 -56.106091 -0.008583 -0.000059 -0.000268 92.025169 464.669525
42 461.269867 -56.106091 -0.008583 -0.000059 -0.000268 92.025169 464.669525
[weapon_bone]
40 -987.239868 1448.372803 0.001431 0.000000 89.965736 -31.038221 1752.833740
41 -987.239868 1448.372803 0.001431 0.000000 89.965736 -31.038221 1752.833740
42 -987.239868 1448.372803 0.001431 0.000000 89.965736 -31.038221 1752.833740
